<svg width="28" height="28" viewBox="0 0 28 28" fill="none" xmlns="http://www.w3.org/2000/svg">
<path fill-rule="evenodd" clip-rule="evenodd" d="M12.3066 7.375C12.0305 7.375 11.8066 7.59886 11.8066 7.875C11.8066 8.15114 12.0305 8.375 12.3066 8.375H15.6948C15.971 8.375 16.1948 8.15114 16.1948 7.875C16.1948 7.59886 15.971 7.375 15.6948 7.375H12.3066ZM8.75391 10.4829C8.75391 10.0687 9.08969 9.73291 9.50391 9.73291H18.4957C18.9099 9.73291 19.2457 10.0687 19.2457 10.4829C19.2457 10.8971 18.9099 11.2329 18.4957 11.2329H18.1351C18.1552 11.3119 18.1659 11.3947 18.1659 11.48V19.1233C18.1659 19.6756 17.7182 20.1233 17.1659 20.1233H10.8257C10.2734 20.1233 9.82568 19.6756 9.82568 19.1233V11.48C9.82568 11.3947 9.83636 11.3119 9.85644 11.2329H9.50391C9.08969 11.2329 8.75391 10.8971 8.75391 10.4829ZM14.5879 13.604C14.5879 13.3279 14.364 13.104 14.0879 13.104C13.8117 13.104 13.5879 13.3279 13.5879 13.604V16.9922C13.5879 17.2684 13.8117 17.4922 14.0879 17.4922C14.364 17.4922 14.5879 17.2684 14.5879 16.9922V13.604ZM16.1318 13.0869C16.408 13.0869 16.6318 13.3108 16.6318 13.5869V16.9751C16.6318 17.2513 16.408 17.4751 16.1318 17.4751C15.8557 17.4751 15.6318 17.2513 15.6318 16.9751V13.5869C15.6318 13.3108 15.8557 13.0869 16.1318 13.0869ZM12.3662 13.604C12.3662 13.3279 12.1424 13.104 11.8662 13.104C11.5901 13.104 11.3662 13.3279 11.3662 13.604V16.9922C11.3662 17.2684 11.5901 17.4922 11.8662 17.4922C12.1424 17.4922 12.3662 17.2684 12.3662 16.9922L12.3662 13.604Z" fill="#EE3425"/>
</svg>
